<svg id="svg" fill="#000000" stroke="#000000" width="33" height="33" version="1.1" viewBox="144 144 512 512" xmlns="http://www.w3.org/2000/svg">
    <g id="IconSvg_bgCarrier" stroke-width="0"></g>
    <g id="IconSvg_tracerCarrier" stroke-linecap="round" stroke-linejoin="round" stroke="#CCCCCC" stroke-width="0">
      <g xmlns="http://www.w3.org/2000/svg">
  <path d="m486.15 281.1-80.105 80.109c-1.0078 1.0078-1.0078 2.5195 0 3.5273l26.703 26.703c1.0078 1.0078 2.5195 1.0078 3.5273 0l80.105-80.105c1.5117-1.5117 1.5117-3.5273 0-4.5352l-25.695-25.695c-1.0078-1.5117-3.0234-1.5117-4.5352-0.003906z"></path>
  <path d="m356.17 411.08-85.648 85.648c-1.0078 1.0078-1.0078 2.5195 0 3.5273l26.703 26.703c1.0078 1.0078 2.5195 1.0078 3.5273 0l85.648-85.648c1.5117-1.5117 1.5117-3.5273 0-4.5352l-25.695-25.695c-1.0078-1.5117-3.0234-1.5117-4.5352 0z"></path>
  <path d="m522.43 245.33-25.695 25.695c-1.5117 1.5117-1.5117 3.5273 0 4.5352l25.695 25.695c1.5117 1.5117 3.5273 1.5117 4.5352 0l25.695-25.695c1.5117-1.5117 1.5117-3.5273 0-4.5352l-25.695-25.695c-1.0117-1.5117-3.5273-1.5117-4.5352 0z"></path>
  <path d="m263.46 505.8-10.078 37.281c-0.50391 1.0078 0.50391 2.0156 1.5117 1.5117l37.281-10.078c1.0078-0.50391 1.5117-1.5117 0.50391-2.0156l-27.207-27.207c-1.0039-1.0039-2.0117-0.5-2.0117 0.50781z"></path>
  <path d="m281.6 251.38-34.762 34.762c-1.0078 1.0078-1.0078 2.5195 0 3.5273l34.762 34.762 11.586-11.586 3.5273 3.5273-11.586 11.586 17.633 17.633 11.586-11.586 3.5273 3.5273-11.082 12.09 17.633 17.633 11.586-11.586 3.5273 3.5273-11.586 11.586 17.633 17.633 11.586-11.586 3.5273 3.5273-11.082 11.586 18.137 18.137 11.586-11.586 3.5273 3.5273-11.586 11.586 17.633 17.633 11.586-11.586 3.5273 3.5273-11.586 11.586 17.633 17.633 11.586-11.586 3.5273 3.5273-11.586 11.586 17.633 17.633 11.586-11.586 3.5273 3.5273-11.586 11.586 17.633 17.633 11.586-11.586 3.5273 3.5273-11.586 11.586 17.633 17.633 11.586-11.586 3.5273 3.5273-11.586 11.586 34.762 34.762c1.0078 1.0078 2.5195 1.0078 3.5273 0l34.762-34.762c1.0078-1.0078 1.0078-2.5195 0-3.5273l-149.13-149.13-115.88-115.37c-1.0078-1.0078-2.5195-1.0078-3.5273 0z"></path>
 </g>

      </g>
     <g id="IconSvg_iconCarrier">
      <g xmlns="http://www.w3.org/2000/svg">
  <path d="m486.15 281.1-80.105 80.109c-1.0078 1.0078-1.0078 2.5195 0 3.5273l26.703 26.703c1.0078 1.0078 2.5195 1.0078 3.5273 0l80.105-80.105c1.5117-1.5117 1.5117-3.5273 0-4.5352l-25.695-25.695c-1.0078-1.5117-3.0234-1.5117-4.5352-0.003906z"></path>
  <path d="m356.17 411.08-85.648 85.648c-1.0078 1.0078-1.0078 2.5195 0 3.5273l26.703 26.703c1.0078 1.0078 2.5195 1.0078 3.5273 0l85.648-85.648c1.5117-1.5117 1.5117-3.5273 0-4.5352l-25.695-25.695c-1.0078-1.5117-3.0234-1.5117-4.5352 0z"></path>
  <path d="m522.43 245.33-25.695 25.695c-1.5117 1.5117-1.5117 3.5273 0 4.5352l25.695 25.695c1.5117 1.5117 3.5273 1.5117 4.5352 0l25.695-25.695c1.5117-1.5117 1.5117-3.5273 0-4.5352l-25.695-25.695c-1.0117-1.5117-3.5273-1.5117-4.5352 0z"></path>
  <path d="m263.46 505.8-10.078 37.281c-0.50391 1.0078 0.50391 2.0156 1.5117 1.5117l37.281-10.078c1.0078-0.50391 1.5117-1.5117 0.50391-2.0156l-27.207-27.207c-1.0039-1.0039-2.0117-0.5-2.0117 0.50781z"></path>
  <path d="m281.6 251.38-34.762 34.762c-1.0078 1.0078-1.0078 2.5195 0 3.5273l34.762 34.762 11.586-11.586 3.5273 3.5273-11.586 11.586 17.633 17.633 11.586-11.586 3.5273 3.5273-11.082 12.09 17.633 17.633 11.586-11.586 3.5273 3.5273-11.586 11.586 17.633 17.633 11.586-11.586 3.5273 3.5273-11.082 11.586 18.137 18.137 11.586-11.586 3.5273 3.5273-11.586 11.586 17.633 17.633 11.586-11.586 3.5273 3.5273-11.586 11.586 17.633 17.633 11.586-11.586 3.5273 3.5273-11.586 11.586 17.633 17.633 11.586-11.586 3.5273 3.5273-11.586 11.586 17.633 17.633 11.586-11.586 3.5273 3.5273-11.586 11.586 17.633 17.633 11.586-11.586 3.5273 3.5273-11.586 11.586 34.762 34.762c1.0078 1.0078 2.5195 1.0078 3.5273 0l34.762-34.762c1.0078-1.0078 1.0078-2.5195 0-3.5273l-149.13-149.13-115.88-115.37c-1.0078-1.0078-2.5195-1.0078-3.5273 0z"></path>
 </g>

      </g>
      </svg>